<svg xmlns="http://www.w3.org/2000/svg" width="22" height="19"><path fill-rule="evenodd" fill="#1472B0" d="M20.217 10.363c-.426 4.841-4.403 8.635-9.246 8.635-3.597 0-6.716-2.093-8.258-5.154h1.959c1.366 2.067 3.677 3.427 6.299 3.427 3.91 0 7.13-3.022 7.55-6.908h-1.642l2.532-3.454 2.532 3.454h-1.726zm-3.521-5.97c-1.392-1.633-3.44-2.665-5.725-2.665-3.614 0-6.64 2.584-7.407 6.045h1.5l-2.532 3.453L0 7.773h1.841c.794-4.422 4.58-7.772 9.13-7.772 3.254 0 6.117 1.714 7.775 4.306h-1.724l-.326.086z"/></svg>