<svg xmlns="http://www.w3.org/2000/svg" width="23" height="13"><path fill-rule="evenodd" fill="#1673B2" d="M18.934 8.266c.73.744 1.501 1.444 2.155 2.263.289.364.563.74.772 1.162.297.6.028 1.261-.487 1.297l-3.205-.002c-.827.072-1.486-.276-2.041-.865-.444-.473-.855-.975-1.281-1.463a3.079 3.079 0 0 0-.577-.535c-.438-.297-.817-.206-1.067.271-.255.484-.313 1.021-.338 1.561-.034.788-.262.995-1.02 1.031-1.621.08-3.158-.176-4.587-1.029-1.259-.753-2.236-1.815-3.086-3.017C2.517 6.598 1.25 4.025.111 1.381-.145.784.042.465.672.453A84.169 84.169 0 0 1 3.81.452c.425.006.706.261.87.68.566 1.453 1.258 2.835 2.127 4.115.231.341.467.682.803.923.372.265.655.177.83-.256a2.95 2.95 0 0 0 .184-.862c.083-1.011.094-2.019-.051-3.025C8.484 1.398 8.145.992 7.544.873c-.306-.061-.26-.18-.112-.363.258-.314.5-.51.983-.51h3.622c.57.117.697.385.775.984l.003 4.201c-.006.232.111.92.511 1.074.32.109.531-.158.724-.371.867-.96 1.486-2.096 2.039-3.273.245-.517.456-1.054.661-1.59.151-.398.389-.595.819-.586l3.486.003c.103 0 .208.002.308.02.587.104.748.369.567.967-.286.94-.842 1.723-1.386 2.51-.582.84-1.203 1.651-1.78 2.496-.53.772-.488 1.161.17 1.831z"/></svg>