<svg xmlns="http://www.w3.org/2000/svg" width="23" height="23"><path fill-rule="evenodd" fill="#1673B2" d="M15.812 22.999H7.188A7.188 7.188 0 0 1 0 15.812V7.187A7.188 7.188 0 0 1 7.188 0h8.624A7.188 7.188 0 0 1 23 7.187v8.625a7.188 7.188 0 0 1-7.188 7.187zm5.032-15.812a5.037 5.037 0 0 0-5.032-5.031H7.188a5.037 5.037 0 0 0-5.032 5.031v8.625a5.037 5.037 0 0 0 5.032 5.031h8.624a5.037 5.037 0 0 0 5.032-5.031V7.187zm-3.163-1.103a.765.765 0 1 1-.001-1.53.765.765 0 0 1 .001 1.53zM11.5 17.25a5.75 5.75 0 1 1 0-11.5 5.75 5.75 0 0 1 0 11.5zm0-9.344A3.598 3.598 0 0 0 7.906 11.5a3.6 3.6 0 0 0 3.594 3.594 3.6 3.6 0 0 0 3.594-3.594A3.598 3.598 0 0 0 11.5 7.906z"/></svg>