<svg xmlns="http://www.w3.org/2000/svg" width="22" height="22"><path fill-rule="evenodd" fill="#8952A6" d="M21.704 10.984c-.155.156-.372.235-.645.235h-.027c-.871-.016-.884-.793-.89-1.165-.002-.106-.003-.205-.014-.286-.631-4.777-2.906-7.023-7.854-7.751a2.996 2.996 0 0 0-.244-.023c-.37-.026-1.139-.079-1.093-.84.02-.33.174-.882.985-.882.093 0 .183.006.264.011.066.004.128.009.179.009a.337.337 0 0 0 .061-.004.608.608 0 0 1 .061-.003c5.096.165 9.511 4.595 9.448 9.481a3.44 3.44 0 0 0 .006.219c.015.325.034.729-.237.999zm-8.932-5.109c.762-.017 1.6.363 2.295 1.039.693.674 1.1 1.521 1.091 2.266.025.714-.247 1.109-.808 1.173a.923.923 0 0 1-.105.005c-.466 0-.829-.36-.883-.876-.115-1.108-.694-1.705-1.82-1.877-.311-.048-.652-.136-.83-.421-.122-.194-.134-.431-.035-.704.21-.584.808-.598 1.095-.605zm-1.467-2.109c.048-.277.232-.739.92-.739.173 0 .345.027.511.054.077.012.149.024.216.031 3.354.385 6.06 3.176 6.033 6.22a.297.297 0 0 1-.003.042c-.008.055-.005.139-.002.227.011.312.035.963-.709 1.071a1.327 1.327 0 0 1-.212.016c-.799 0-.844-.711-.866-1.053-.006-.091-.011-.178-.023-.248-.496-2.862-1.511-3.876-4.524-4.52-.075-.016-.163-.028-.258-.041-.322-.042-.722-.095-.95-.391-.135-.176-.18-.402-.133-.669zm.446 11.481c.285.124.545.187.775.187.388 0 .703-.183.963-.56.586-.851 1.296-1.282 2.111-1.282.605 0 1.245.233 1.957.712l.345.232c.556.371 1.131.754 1.671 1.171.102.078.211.158.316.235.796.583 1.786 1.308 1.244 2.775-.619 1.676-2.635 3.146-4.314 3.146h-.029a.3.3 0 0 1-.089-.013 7.858 7.858 0 0 0-.209-.047 5.214 5.214 0 0 1-.906-.257c-3.57-1.473-6.651-3.433-9.158-5.825-2.561-2.445-4.593-5.407-6.037-8.804-.5-1.176-.521-2.305-.06-3.267.476-.995 1.432-1.748 2.763-2.177a2.343 2.343 0 0 1 1.534.005c1.158.407 3.907 3.998 3.974 5.191.06 1.051-.784 1.599-1.237 1.894-.799.52-.946 1.158-.492 2.135.939 2.02 2.579 3.55 4.878 4.549z"/></svg>