<svg xmlns="http://www.w3.org/2000/svg" width="26" height="25"><path fill-rule="evenodd" fill="#1FBE65" d="M26 12.177c0 6.726-5.585 12.178-12.476 12.178-2.187 0-4.243-.55-6.031-1.515L.586 24.999l2.252-6.534a11.903 11.903 0 0 1-1.79-6.288c0-6.726 5.585-12.178 12.476-12.178C20.415-.001 26 5.451 26 12.177zM13.524 1.938c-5.784 0-10.489 4.594-10.489 10.239 0 2.241.742 4.315 1.998 6.003l-1.311 3.802 4.031-1.26a10.604 10.604 0 0 0 5.771 1.693c5.783 0 10.489-4.592 10.489-10.238 0-5.645-4.705-10.239-10.489-10.239zm6.3 13.044c-.077-.124-.281-.199-.586-.349-.306-.149-1.81-.871-2.09-.97-.28-.1-.485-.15-.688.149-.204.299-.79.971-.969 1.17-.178.2-.357.224-.663.076-.305-.15-1.29-.465-2.459-1.482-.909-.792-1.523-1.768-1.701-2.068-.178-.298-.019-.46.134-.608.138-.134.306-.349.459-.523.153-.174.204-.298.306-.498.102-.199.051-.373-.026-.524-.076-.148-.688-1.617-.943-2.215-.255-.597-.509-.497-.688-.497-.178 0-.382-.026-.586-.026-.204 0-.535.076-.816.374-.28.298-1.07 1.021-1.07 2.489 0 1.469 1.095 2.889 1.249 3.088.153.198 2.115 3.311 5.224 4.505 3.109 1.195 3.109.797 3.67.747.56-.05 1.809-.722 2.065-1.419.254-.697.254-1.295.178-1.419z"/></svg>