<svg xmlns="http://www.w3.org/2000/svg" width="20" height="19"><path fill-rule="evenodd" fill="#B0E6FF" d="M18.789 9.427c-.135.137-.323.205-.559.205h-.023c-.754-.014-.765-.696-.771-1.025a2.1 2.1 0 0 0-.012-.251c-.546-4.204-2.516-6.18-6.799-6.822a2.753 2.753 0 0 0-.211-.019c-.32-.023-.986-.07-.946-.74.017-.29.151-.776.853-.776.08 0 .158.006.228.01.057.004.111.008.155.008a.256.256 0 0 0 .053-.004c.017-.002.035-.002.053-.002 4.411.145 8.233 4.043 8.178 8.343-.001.057.002.124.006.193.013.286.029.641-.205.88zM11.057 4.93c.659-.015 1.385.319 1.986.914.6.594.952 1.339.945 1.995.021.628-.214.976-.7 1.032a.922.922 0 0 1-.09.005c-.404 0-.718-.318-.765-.772-.1-.975-.601-1.5-1.576-1.652-.269-.042-.564-.119-.719-.37-.105-.171-.115-.379-.03-.62.182-.513.7-.526.949-.532zm-1.27-1.856c.041-.243.201-.65.796-.65.15 0 .298.024.442.047.067.01.129.021.187.027 2.903.34 5.246 2.795 5.223 5.474a.23.23 0 0 1-.003.037c-.007.048-.004.123-.001.2.009.275.03.847-.614.942a1.096 1.096 0 0 1-.184.014c-.692 0-.731-.625-.749-.926a2.092 2.092 0 0 0-.021-.219c-.429-2.518-1.307-3.41-3.916-3.977a2.192 2.192 0 0 0-.223-.035c-.278-.038-.625-.085-.822-.345-.117-.156-.156-.354-.115-.589zm.385 10.103c.247.109.473.164.671.164.337 0 .609-.161.834-.492.508-.749 1.122-1.128 1.828-1.128.523 0 1.077.205 1.693.627l.3.203c.481.327.978.664 1.446 1.031.088.069.182.139.273.208.69.512 1.547 1.15 1.077 2.441-.536 1.475-2.281 2.768-3.735 2.768h-.024a.252.252 0 0 1-.077-.011 4.03 4.03 0 0 0-.181-.041 4.391 4.391 0 0 1-.784-.227c-3.091-1.295-5.758-3.02-7.929-5.126C3.347 11.443 1.589 8.837.338 5.847c-.432-1.034-.45-2.028-.052-2.875.413-.876 1.24-1.538 2.392-1.916.458-.15.904-.148 1.328.004 1.003.358 3.382 3.518 3.441 4.569.052.924-.679 1.407-1.071 1.667-.692.457-.819 1.018-.426 1.878.812 1.778 2.233 3.125 4.222 4.003z"/></svg>