<svg xmlns="http://www.w3.org/2000/svg" width="22" height="22"><path fill-rule="evenodd" fill="#B0E6FF" d="M22 10.716c0 5.918-4.835 10.716-10.8 10.716-1.894 0-3.673-.484-5.221-1.333L0 21.999l1.949-5.75A10.602 10.602 0 0 1 .4 10.716C.4 4.797 5.235-.001 11.2-.001c5.966 0 10.8 4.798 10.8 10.717zm-10.8-9.01c-5.007 0-9.08 4.042-9.08 9.01 0 1.972.642 3.797 1.729 5.282l-1.134 3.346 3.489-1.109a9.07 9.07 0 0 0 4.996 1.49c5.007 0 9.08-4.041 9.08-9.009s-4.073-9.01-9.08-9.01zm5.454 11.478c-.067-.109-.243-.175-.508-.307-.265-.131-1.567-.767-1.809-.854-.243-.087-.42-.131-.596.132-.176.262-.684.854-.838 1.029-.155.175-.309.197-.574.066-.264-.131-1.117-.409-2.129-1.304-.787-.696-1.318-1.555-1.472-1.819-.155-.262-.016-.404.116-.535.119-.118.265-.307.397-.461.133-.152.177-.262.264-.437.089-.176.045-.329-.022-.461-.066-.131-.596-1.423-.816-1.95-.221-.526-.441-.438-.596-.438-.154 0-.33-.021-.507-.021a.976.976 0 0 0-.706.328c-.243.263-.926.899-.926 2.19 0 1.293.948 2.542 1.081 2.718.132.174 1.83 2.914 4.522 3.965 2.692 1.051 2.692.701 3.177.657.485-.044 1.566-.635 1.787-1.248.221-.615.221-1.141.155-1.25z"/></svg>